<?xml version="1.0" standalone="no"?>
<!DOCTYPE svg PUBLIC "-//W3C//DTD SVG 20010904//EN"
 "http://www.w3.org/TR/2001/REC-SVG-20010904/DTD/svg10.dtd">
<svg version="1.0" xmlns="http://www.w3.org/2000/svg"
 width="512.000000pt" height="512.000000pt" viewBox="0 0 512.000000 512.000000"
 preserveAspectRatio="xMidYMid meet">
<metadata>
Created by potrace 1.16, written by Peter Selinger 2001-2019
</metadata>
<g transform="translate(0.000000,512.000000) scale(0.100000,-0.100000)"
fill="#451e13" stroke="none">
<path d="M2330 4473 c-252 -32 -542 -130 -747 -253 -507 -304 -844 -806 -928
-1381 -20 -140 -20 -418 0 -558 74 -503 342 -955 750 -1260 231 -174 479 -285
774 -349 118 -25 142 -27 381 -27 240 0 263 2 381 28 388 83 707 255 979 527
272 272 444 591 527 979 26 118 28 141 28 381 0 240 -2 263 -28 381 -148 692
-631 1235 -1291 1450 -194 64 -309 81 -561 84 -126 2 -246 1 -265 -2z m457
-228 c847 -120 1473 -836 1473 -1685 0 -937 -763 -1700 -1700 -1700 -851 0
-1573 634 -1686 1480 -122 918 526 1770 1450 1905 123 18 339 18 463 0z"/>
<path d="M2450 3305 l0 -115 110 0 110 0 0 115 0 115 -110 0 -110 0 0 -115z"/>
<path d="M2450 2345 l0 -645 110 0 110 0 0 645 0 645 -110 0 -110 0 0 -645z"/>
</g>
</svg>
