<?xml version="1.0" standalone="no"?>
<!DOCTYPE svg PUBLIC "-//W3C//DTD SVG 20010904//EN"
 "http://www.w3.org/TR/2001/REC-SVG-20010904/DTD/svg10.dtd">
<svg version="1.0" xmlns="http://www.w3.org/2000/svg"
 width="512.000000pt" height="512.000000pt" viewBox="0 0 512.000000 512.000000"
 preserveAspectRatio="xMidYMid meet">
<metadata>
Created by potrace 1.16, written by Peter Selinger 2001-2019
</metadata>
<g transform="translate(0.000000,512.000000) scale(0.100000,-0.100000)"
fill="#000000" stroke="none">
<path d="M2095 4346 c-339 -56 -637 -209 -876 -450 -129 -130 -214 -249 -294
-411 -71 -143 -102 -232 -137 -387 -20 -90 -23 -130 -23 -323 0 -193 3 -233
23 -323 35 -155 66 -244 137 -387 129 -261 323 -477 571 -637 135 -87 340
-170 516 -209 119 -27 406 -37 543 -20 230 29 466 118 663 248 l84 56 361
-361 c397 -395 388 -387 503 -380 78 5 136 41 171 107 28 53 31 142 8 199 -11
25 -134 155 -372 393 l-356 357 57 84 c101 153 176 330 223 528 30 130 43 412
24 555 -88 663 -582 1199 -1243 1346 -120 27 -459 35 -583 15z m390 -427 c487
-60 888 -431 991 -919 24 -117 25 -335 0 -450 -136 -635 -750 -1037 -1376
-900 -234 51 -423 160 -597 344 -413 438 -413 1124 0 1562 106 112 192 179
307 238 219 113 439 154 675 125z"/>
</g>
</svg>
