<?xml version="1.0" standalone="no"?>
<!DOCTYPE svg PUBLIC "-//W3C//DTD SVG 20010904//EN"
 "http://www.w3.org/TR/2001/REC-SVG-20010904/DTD/svg10.dtd">
<svg version="1.0" xmlns="http://www.w3.org/2000/svg"
 width="512.000000pt" height="512.000000pt" viewBox="0 0 512.000000 512.000000"
 preserveAspectRatio="xMidYMid meet">
<metadata>
Created by potrace 1.16, written by Peter Selinger 2001-2019
</metadata>
<g transform="translate(0.000000,512.000000) scale(0.100000,-0.100000)"
fill="#451e13" stroke="none">
<path d="M1869 4593 c-9 -10 -15 -48 -18 -100 l-3 -83 -243 0 c-201 0 -245 -2
-255 -15 -6 -8 -130 -256 -275 -552 l-263 -538 -138 -3 c-81 -1 -143 -7 -151
-14 -18 -15 -19 -468 -1 -486 7 -7 41 -12 83 -12 l70 0 157 -1126 c87 -619
163 -1132 169 -1140 10 -12 251 -14 1585 -14 1521 0 1574 1 1583 19 6 10 70
523 143 1140 l133 1121 70 0 c42 0 76 5 83 12 18 18 17 471 -1 486 -8 7 -70
13 -151 14 l-138 3 -263 538 c-145 295 -268 544 -275 552 -10 13 -53 15 -255
15 l-243 0 -3 83 c-3 52 -9 90 -18 100 -12 16 -73 17 -691 17 -618 0 -679 -1
-691 -17z m1281 -238 l0 -145 -590 0 -590 0 0 145 0 145 590 0 590 0 0 -145z
m-1299 -138 c3 -52 9 -90 18 -100 12 -16 73 -17 691 -17 618 0 679 1 691 17 9
10 15 48 18 100 l3 83 212 0 211 0 240 -491 c132 -271 242 -495 243 -500 2 -5
-700 -9 -1618 -9 -918 0 -1620 4 -1618 9 2 5 111 229 243 499 l240 491 211 1
212 0 3 -83z m2649 -1172 l0 -145 -1940 0 -1940 0 0 145 0 145 1940 0 1940 0
0 -145z m-2610 -585 l0 -330 -505 0 c-278 0 -505 3 -505 8 0 4 -20 151 -45
327 -25 176 -45 321 -45 323 0 1 248 2 550 2 l550 0 0 -330z m1230 0 l0 -330
-560 0 -560 0 0 330 0 330 560 0 560 0 0 -330z m1210 324 c0 -15 -71 -612 -76
-631 l-4 -23 -510 0 -510 0 0 330 0 330 550 0 c303 0 550 -3 550 -6z m-2440
-1099 l0 -325 -449 0 -449 0 -6 28 c-6 28 -86 602 -86 615 0 4 223 7 495 7
l495 0 0 -325z m1230 0 l0 -325 -560 0 -560 0 0 325 0 325 560 0 560 0 0 -325z
m1116 293 c-3 -18 -19 -150 -36 -293 -16 -143 -32 -275 -35 -292 l-6 -33 -464
0 -465 0 0 325 0 325 505 0 506 0 -5 -32z m-2346 -1043 l0 -315 -399 0 -399 0
-11 83 c-7 45 -27 187 -45 315 l-32 232 443 0 443 0 0 -315z m1230 0 l0 -315
-560 0 -560 0 0 315 0 315 560 0 560 0 0 -315z m1024 273 c-3 -24 -20 -164
-37 -313 l-32 -270 -423 -3 -422 -2 0 315 0 315 460 0 460 0 -6 -42z"/>
</g>
</svg>
